<svg width="46" height="46" viewBox="0 0 46 46" fill="none" xmlns="http://www.w3.org/2000/svg">
<path d="M19.9324 38.3333C15.5955 38.3333 13.427 38.3333 12.0797 36.986C10.7324 35.6387 10.7324 33.4703 10.7324 29.1333V16.8667C10.7324 12.5297 10.7324 10.3613 12.0797 9.01398C13.427 7.66667 15.5955 7.66667 19.9324 7.66667H26.0658C30.4027 7.66667 32.5711 7.66667 33.9184 9.01398C35.2658 10.3613 35.2658 12.5297 35.2658 16.8667M26.0658 38.3333C30.4027 38.3333 32.5711 38.3333 33.9184 36.986C35.2658 35.6387 35.2658 33.4703 35.2658 29.1333V23" stroke="white" stroke-width="1.5" stroke-linecap="round"/>
<path d="M35.109 29.1333H16.709C15.2831 29.1333 14.5701 29.1333 13.9851 29.2901C12.3977 29.7154 11.1578 30.9553 10.7324 32.5428" stroke="white" stroke-width="1.5"/>
<path d="M15.334 29.1333V18.4M15.334 8.43333V12.2667" stroke="white" stroke-width="1.5" stroke-linecap="round"/>
<path d="M24.5337 29.1333V34.5474C24.5337 34.97 24.5337 35.1813 24.3883 35.2667C24.2428 35.3521 24.0439 35.2576 23.6461 35.0686L21.7413 34.1638C21.6068 34.0999 21.5395 34.0679 21.4671 34.0679C21.3947 34.0679 21.3274 34.0999 21.1928 34.1638L19.288 35.0686C18.8902 35.2576 18.6913 35.3521 18.5458 35.2667C18.4004 35.1813 18.4004 34.97 18.4004 34.5474V29.8234" stroke="white" stroke-width="1.5" stroke-linecap="round"/>
</svg>
