<svg width="46" height="46" viewBox="0 0 46 46" fill="none" xmlns="http://www.w3.org/2000/svg">
<path d="M32.1998 7.74673C34.2978 7.88386 35.6082 8.25584 36.4771 9.2649C37.8535 10.8631 37.4851 13.3192 36.7483 18.2314L34.9083 30.4981C34.3476 34.2357 34.0673 36.1045 32.7733 37.2189C31.4793 38.3333 29.5895 38.3333 25.8101 38.3333H20.1893C16.4098 38.3333 14.5201 38.3333 13.226 37.2189C11.932 36.1045 11.6517 34.2357 11.091 30.4981L9.25105 18.2314C8.51422 13.3192 8.14581 10.8631 9.5222 9.2649C10.8986 7.66666 13.3821 7.66666 18.3493 7.66666H26.0665" stroke="white" stroke-width="1.5" stroke-linecap="round"/>
<path d="M36.7992 13.8H9.19922" stroke="white" stroke-width="1.5" stroke-linecap="round"/>
<path d="M33.7342 33.7333H12.2676" stroke="white" stroke-width="1.5" stroke-linecap="round"/>
<path d="M16.8668 13.8L9.9668 21.4667L21.4668 33.7333M26.0668 13.8L10.7335 29.1333M35.2668 13.8L15.3335 33.7333M24.5335 33.7333L36.0335 21.4667L29.1335 13.8M19.9335 13.8L35.2668 29.1333M10.7335 13.8L30.6668 33.7333" stroke="white" stroke-width="1.5" stroke-linejoin="round"/>
</svg>
