<svg width="50" height="50" viewBox="0 0 50 50" fill="none" xmlns="http://www.w3.org/2000/svg">
<path d="M28.9341 11.7978L30.4789 10.253C33.0384 7.69347 37.1882 7.69347 39.7477 10.253C42.3072 12.8125 42.3072 16.9623 39.7477 19.5218L38.2029 21.0666M28.9341 11.7978C28.9341 11.7978 29.1272 15.0805 32.0237 17.977C34.9202 20.8735 38.2029 21.0666 38.2029 21.0666M28.9341 11.7978L25.0007 15.7312M38.2029 21.0666L29.4352 29.8343L24.2694 35L24.0008 35.2686C23.0389 36.2306 22.5579 36.7115 22.0276 37.1252C21.402 37.6131 20.7251 38.0315 20.0089 38.3728C19.4018 38.6621 18.7565 38.8772 17.466 39.3074L11.9972 41.1303M11.9972 41.1303L10.6604 41.5759C10.0253 41.7876 9.32508 41.6223 8.8517 41.149C8.37833 40.6756 8.21303 39.9754 8.42473 39.3403L8.87033 38.0035M11.9972 41.1303L8.87033 38.0035M8.87033 38.0035L10.6933 32.5347C11.1234 31.2441 11.3385 30.5989 11.6279 29.9917C11.9692 29.2755 12.3875 28.5986 12.8755 27.9731C13.2891 27.4427 13.7701 26.9618 14.732 25.9998L19.1673 21.5645" stroke="white" stroke-width="2" stroke-linecap="round"/>
</svg>
