<svg width="892" height="739" viewBox="0 0 892 739" fill="none" xmlns="http://www.w3.org/2000/svg">
<g filter="url(#filter0_f_93_2922)">
<circle cx="352" cy="155" r="90" fill="#16A571"/>
</g>
<g filter="url(#filter1_f_93_2922)">
<circle cx="207" cy="407" r="90" fill="#33D380"/>
</g>
<g filter="url(#filter2_f_93_2922)">
<circle cx="781" cy="532" r="90" fill="#16A571"/>
</g>
<path d="M792.518 653.186C792.518 653.288 646.542 653.491 466.513 653.491C286.382 653.39 140.406 653.288 140.406 653.186C140.406 653.084 286.382 652.881 466.513 652.881C646.542 652.881 792.518 652.983 792.518 653.186Z" fill="#263238"/>
<path d="M503.414 383.059C503.414 383.059 540.721 392.928 552.411 432.201L536.553 439.221C536.553 439.221 532.894 411.852 495.993 399.948C476.069 393.538 449.537 402.593 442.218 410.936L424.429 403.306C436.424 390.181 465.802 372.783 503.414 383.059Z" fill="#16A571"/>
<path d="M562.577 422.332L523.135 435.355L553.428 450.514L562.577 422.332Z" fill="#16A571"/>
<path d="M456.856 653.186L317.59 653.084C300.817 653.084 287.297 638.739 287.297 621.137L287.399 253.947C287.399 236.244 301.02 222 317.691 222L456.958 222.102C473.731 222.102 487.251 236.447 487.251 254.049L487.149 621.239C487.251 638.84 473.629 653.186 456.856 653.186Z" fill="#263238"/>
<path d="M456.856 235.125H429.816C426.157 235.125 423.209 238.381 423.209 242.349V247.537C423.209 251.505 420.261 254.761 416.601 254.761H363.945C360.285 254.761 357.439 251.505 357.439 247.537V242.349C357.439 238.381 354.491 235.125 350.933 235.125H341.479H317.895C306.205 235.125 296.65 245.096 296.65 257.508L296.548 615.745C296.548 628.056 306.002 638.128 317.794 638.128L456.755 638.23C468.445 638.23 478 628.259 478 615.846L478.102 257.406C478.102 245.096 468.547 235.125 456.856 235.125Z" fill="white"/>
<path d="M325.925 609.844V620.323C325.925 621.239 324.909 621.748 324.197 621.341L315.963 616.05C315.252 615.643 315.252 614.524 315.963 614.117L324.197 608.826C325.011 608.419 325.925 608.928 325.925 609.844Z" fill="#E0E0E0"/>
<path d="M393.83 615.032C393.83 619 390.577 622.256 386.613 622.256C382.648 622.256 379.396 619 379.396 615.032C379.396 611.065 382.648 607.809 386.613 607.809C390.577 607.809 393.83 611.065 393.83 615.032Z" fill="#E0E0E0"/>
<path d="M457.364 622.154H447.808C446.792 622.154 445.877 621.341 445.877 620.221V610.658C445.877 609.64 446.69 608.724 447.808 608.724H457.364C458.38 608.724 459.295 609.538 459.295 610.658V620.221C459.194 621.239 458.38 622.154 457.364 622.154Z" fill="#E0E0E0"/>
<path d="M347.069 364.542C350.831 364.542 354.49 364.542 358.251 364.542C357.54 364.033 356.828 363.423 356.117 362.914C357.743 368.306 359.37 373.8 361.098 379.193C363.741 387.841 366.282 396.387 368.925 405.035C369.535 407.07 370.145 409.003 370.755 411.038C371.06 411.954 371.873 412.666 372.89 412.666C383.563 412.666 394.237 412.564 404.911 412.564C406.435 412.564 407.96 412.564 409.485 412.564C412.433 412.564 412.433 408.088 409.485 408.088C398.811 408.088 388.138 408.189 377.464 408.189C375.939 408.189 374.414 408.189 372.89 408.189C373.601 408.698 374.313 409.309 375.024 409.817C373.398 404.425 371.771 398.931 370.043 393.538C367.4 384.89 364.859 376.344 362.216 367.696C361.606 365.661 360.996 363.728 360.386 361.693C360.081 360.777 359.268 360.065 358.251 360.065C354.49 360.065 350.831 360.065 347.069 360.065C344.121 359.963 344.121 364.542 347.069 364.542Z" fill="#263238"/>
<path d="M416.5 370.239C414.365 379.701 412.332 389.163 410.197 398.524C409.892 399.846 409.587 401.271 409.282 402.594C409.79 402.187 410.4 401.78 410.909 401.373C406.334 401.373 401.76 401.271 397.185 401.271C389.866 401.169 382.547 401.169 375.228 401.067C373.601 401.067 371.873 401.067 370.247 401.067C370.755 401.474 371.365 401.881 371.873 402.288C368.925 392.928 365.977 383.568 363.029 374.207C362.623 372.885 362.216 371.562 361.81 370.239C361.301 370.951 360.691 371.664 360.183 372.376C366.689 372.376 373.296 372.376 379.802 372.376C390.171 372.376 400.54 372.376 410.909 372.376C413.348 372.376 415.686 372.376 418.126 372.376C420.261 372.376 420.261 369.018 418.126 369.018C411.62 369.018 405.013 369.018 398.507 369.018C388.138 369.018 377.769 369.018 367.401 369.018C364.961 369.018 362.623 369.018 360.183 369.018C359.167 369.018 358.252 370.138 358.557 371.155C361.505 380.515 364.453 389.876 367.401 399.236C367.807 400.559 368.214 401.881 368.62 403.204C368.824 403.916 369.535 404.425 370.247 404.425C374.821 404.425 379.396 404.527 383.97 404.527C391.289 404.628 398.608 404.628 405.927 404.73C407.554 404.73 409.282 404.73 410.909 404.73C411.62 404.73 412.332 404.221 412.535 403.509C414.67 394.047 416.703 384.585 418.838 375.225C419.143 373.902 419.447 372.478 419.752 371.155C420.261 369.018 417.008 368.103 416.5 370.239Z" fill="#263238"/>
<path d="M371.771 371.765C373.601 382.143 375.838 392.317 377.566 402.695C377.972 404.832 381.225 403.916 380.819 401.78C378.989 391.402 376.752 381.228 375.024 370.85C374.618 368.713 371.365 369.629 371.771 371.765Z" fill="#263238"/>
<path d="M389.561 371.257C389.764 381.838 389.967 392.419 390.069 403C390.069 405.137 393.525 405.137 393.423 403C393.22 392.419 393.017 381.838 392.915 371.257C392.915 369.12 389.561 369.12 389.561 371.257Z" fill="#263238"/>
<path d="M406.131 403.407C407.554 394.047 408.977 384.585 410.4 375.225C410.604 373.902 410.807 372.579 411.01 371.155C411.112 370.239 410.807 369.324 409.79 369.12C408.977 368.917 407.859 369.425 407.757 370.341C406.334 379.701 404.911 389.163 403.488 398.524C403.285 399.846 403.081 401.169 402.878 402.594C402.776 403.509 403.081 404.425 404.098 404.628C404.809 404.832 405.927 404.323 406.131 403.407Z" fill="#263238"/>
<path d="M363.944 382.347C381.022 382.347 398.1 382.347 415.076 382.347C417.211 382.347 417.211 378.989 415.076 378.989C397.998 378.989 380.92 378.989 363.944 378.989C361.708 378.887 361.708 382.347 363.944 382.347Z" fill="#263238"/>
<path d="M368.721 394.251C383.461 394.251 398.303 394.251 413.042 394.251C415.177 394.251 415.177 390.893 413.042 390.893C398.303 390.893 383.461 390.893 368.721 390.893C366.485 390.791 366.485 394.251 368.721 394.251Z" fill="#263238"/>
<path d="M409.383 427.419C412.696 427.419 415.381 424.731 415.381 421.416C415.381 418.101 412.696 415.413 409.383 415.413C406.071 415.413 403.386 418.101 403.386 421.416C403.386 424.731 406.071 427.419 409.383 427.419Z" fill="#263238"/>
<path d="M376.244 427.419C379.556 427.419 382.241 424.731 382.241 421.416C382.241 418.101 379.556 415.413 376.244 415.413C372.931 415.413 370.246 418.101 370.246 421.416C370.246 424.731 372.931 427.419 376.244 427.419Z" fill="#263238"/>
<path d="M364.757 340.327C364.757 340.327 339.953 339.513 325.519 361.489L333.956 368.713C333.956 368.713 341.275 352.536 366.18 352.027C379.7 351.722 388.951 359.658 391.899 366.068L407.248 365.763C402.267 355.588 389.764 340.937 364.757 340.327Z" fill="#16A571"/>
<path d="M322.164 354.367L344.02 369.629L324.197 373.699L322.164 354.367Z" fill="#16A571"/>
<path d="M466.818 272.871C466.818 274.194 465.7 275.313 464.378 275.313C463.057 275.313 461.938 274.194 461.938 272.871C461.938 271.549 463.057 270.43 464.378 270.43C465.7 270.328 466.818 271.447 466.818 272.871Z" fill="#263238"/>
<path d="M464.378 282.028C465.726 282.028 466.818 280.935 466.818 279.586C466.818 278.238 465.726 277.145 464.378 277.145C463.031 277.145 461.938 278.238 461.938 279.586C461.938 280.935 463.031 282.028 464.378 282.028Z" fill="#263238"/>
<path d="M464.378 288.743C465.726 288.743 466.818 287.65 466.818 286.301C466.818 284.953 465.726 283.86 464.378 283.86C463.031 283.86 461.938 284.953 461.938 286.301C461.938 287.65 463.031 288.743 464.378 288.743Z" fill="#263238"/>
<path d="M317.895 271.651L307.831 279.179H310.474V288.235H315.862V281.52L320.131 281.418V288.235H325.316V279.078H327.959L317.895 271.651Z" fill="#263238"/>
<path d="M478.712 297.697C478.712 297.798 437.745 298.002 387.325 298.002C336.802 298.002 295.938 297.9 295.938 297.697C295.938 297.595 336.904 297.391 387.325 297.391C437.847 297.391 478.712 297.493 478.712 297.697Z" fill="#E0E0E0"/>
<path d="M385.393 567.213H383.767C378.277 567.213 373.805 562.737 373.805 557.243V477.069C373.805 471.575 378.277 467.098 383.767 467.098H385.393C390.883 467.098 395.355 471.575 395.355 477.069V557.243C395.355 562.737 390.883 567.213 385.393 567.213Z" fill="#E0E0E0"/>
<path d="M426.563 519.496C426.563 538.624 411.01 554.19 391.899 554.19C389.865 554.19 387.832 553.987 385.799 553.682C369.535 550.833 357.133 536.691 357.133 519.598C357.133 500.47 372.686 484.903 391.797 484.903C410.908 484.802 426.461 500.368 426.563 519.496Z" fill="#A59F16"/>
<path d="M419.243 519.903C419.243 534.452 407.451 546.356 392.813 546.356C378.175 546.356 366.281 534.554 366.281 520.005C366.281 505.455 378.073 493.552 392.711 493.552C407.35 493.45 419.243 505.252 419.243 519.903Z" fill="#A59F16"/>
<path d="M418.227 519.496C418.227 519.496 418.227 519.394 418.227 519.089C418.227 518.784 418.125 518.377 418.125 517.868C418.125 517.563 418.125 517.258 418.023 516.952C418.023 516.647 417.922 516.24 417.82 515.833C417.718 515.019 417.515 514.104 417.21 513.086C416.702 511.051 415.787 508.609 414.262 506.066C412.737 503.522 410.501 500.877 407.553 498.639C404.605 496.4 400.844 494.569 396.473 493.755C392.203 493.043 387.324 493.145 382.749 494.874C381.529 495.281 380.513 495.79 379.293 496.4C378.785 496.706 378.175 497.011 377.667 497.418C377.158 497.723 376.548 498.13 376.04 498.537C375.024 499.249 374.007 500.165 373.092 501.081C372.177 502.098 371.262 503.014 370.551 504.133C369.026 506.269 367.603 508.711 366.79 511.357C365.976 514.002 365.468 516.749 365.468 519.598C365.468 522.447 365.976 525.194 366.79 527.839C367.603 530.484 369.026 532.926 370.551 535.063C371.262 536.182 372.279 537.097 373.092 538.115C374.109 539.031 375.024 539.946 376.04 540.658C377.057 541.472 378.175 542.083 379.293 542.693C380.411 543.202 381.529 543.813 382.749 544.219C387.324 545.949 392.203 546.051 396.473 545.339C400.844 544.525 404.503 542.693 407.553 540.455C410.501 538.217 412.737 535.571 414.262 533.028C415.787 530.484 416.702 528.042 417.21 526.007C417.515 524.99 417.617 524.074 417.718 523.26C417.82 522.853 417.82 522.447 417.922 522.141C417.922 521.836 417.922 521.531 418.023 521.226C418.023 520.717 418.125 520.31 418.125 520.005C418.227 519.699 418.227 519.496 418.227 519.496C418.227 519.496 418.227 519.598 418.227 519.903C418.227 520.208 418.227 520.615 418.227 521.124C418.227 521.429 418.227 521.734 418.227 522.04C418.227 522.345 418.125 522.752 418.125 523.159C418.023 523.973 417.922 524.888 417.617 525.906C417.21 527.941 416.193 530.382 414.77 533.028C413.245 535.571 411.009 538.318 408.061 540.658C405.012 542.897 401.25 544.932 396.879 545.644C392.508 546.458 387.527 546.356 382.851 544.525C381.631 544.118 380.513 543.609 379.395 542.999C378.276 542.388 377.158 541.778 376.142 540.862C375.024 540.15 374.109 539.234 373.092 538.318C372.177 537.301 371.262 536.385 370.449 535.266C368.823 533.028 367.501 530.586 366.586 527.941C365.671 525.295 365.265 522.446 365.163 519.496C365.163 516.545 365.671 513.697 366.586 511.051C367.399 508.304 368.823 505.862 370.449 503.726C371.262 502.607 372.177 501.589 373.092 500.674C374.109 499.758 375.024 498.842 376.142 498.13C376.65 497.723 377.158 497.316 377.768 497.011C378.276 496.706 378.886 496.299 379.395 495.993C380.513 495.485 381.631 494.874 382.851 494.467C387.527 492.738 392.508 492.534 396.879 493.348C401.25 494.162 405.113 496.095 408.061 498.333C411.111 500.674 413.245 503.319 414.77 505.862C416.295 508.406 417.21 510.848 417.718 512.984C418.023 514.002 418.125 514.918 418.227 515.731C418.328 516.138 418.328 516.545 418.328 516.851C418.328 517.156 418.328 517.461 418.328 517.766C418.328 518.275 418.328 518.682 418.328 518.987C418.328 519.394 418.227 519.496 418.227 519.496Z" fill="#263238"/>
<g opacity="0.3">
<path d="M418.024 519.801C417.821 519.801 417.719 518.682 417.313 516.647C416.906 514.612 416.093 511.764 414.263 508.508C413.348 506.88 412.23 505.252 410.807 503.726C409.384 502.2 407.655 500.674 405.622 499.351C404.606 498.74 403.589 498.13 402.471 497.621C401.353 497.113 400.133 496.604 398.913 496.299C397.693 495.993 396.372 495.688 395.05 495.485C393.729 495.281 392.407 495.281 390.984 495.281C389.663 495.383 388.239 495.485 386.918 495.688C385.596 495.892 384.377 496.299 383.157 496.706C381.937 497.113 380.819 497.723 379.701 498.232C378.582 498.842 377.566 499.453 376.651 500.165C374.719 501.589 373.093 503.217 371.771 504.845C370.45 506.473 369.433 508.203 368.62 509.83C366.994 513.086 366.384 516.037 366.079 518.173C365.774 520.208 365.774 521.429 365.571 521.429C365.469 521.429 365.266 520.31 365.266 518.173C365.367 516.037 365.774 512.883 367.299 509.322C368.01 507.592 369.128 505.659 370.45 503.828C371.771 501.996 373.5 500.267 375.533 498.639C376.549 497.825 377.667 497.113 378.786 496.502C380.005 495.892 381.225 495.281 382.547 494.772C383.868 494.264 385.19 493.857 386.613 493.653C388.036 493.348 389.459 493.246 390.984 493.145C392.509 493.145 393.932 493.145 395.355 493.348C396.778 493.552 398.202 493.857 399.523 494.264C400.845 494.671 402.166 495.179 403.386 495.688C404.606 496.299 405.724 496.909 406.842 497.621C408.977 499.046 410.807 500.674 412.23 502.403C413.653 504.133 414.873 505.964 415.686 507.694C417.414 511.153 418.024 514.205 418.227 516.342C418.329 518.58 418.227 519.801 418.024 519.801Z" fill="black"/>
</g>
<g opacity="0.3">
<path d="M394.847 535.368L394.949 539.946L390.882 540.048L390.781 535.571C386.715 535.368 382.75 534.147 380.514 532.417L382.648 527.33C384.681 528.856 387.731 529.874 390.679 530.179L390.577 523.26C386.003 522.243 380.819 520.819 380.819 514.918C380.717 510.543 383.868 506.778 390.374 505.862L390.272 501.284L394.339 501.182L394.44 505.659C397.49 505.862 400.54 506.676 402.878 507.999L400.946 513.086C398.811 511.967 396.677 511.255 394.644 511.051L394.745 518.072C399.32 519.089 404.402 520.513 404.504 526.313C404.301 530.688 401.251 534.452 394.847 535.368ZM390.374 517.156L390.272 511.357C388.138 511.865 387.223 513.086 387.324 514.409C387.324 515.935 388.544 516.647 390.374 517.156ZM397.693 527.025C397.693 525.601 396.473 524.787 394.644 524.278L394.745 529.975C396.778 529.467 397.693 528.348 397.693 527.025Z" fill="black"/>
</g>
<path d="M372.991 471.066H332.939V560.804H372.991V471.066Z" fill="white"/>
<path d="M595.512 511.662C599.985 531.603 587.38 551.443 567.354 555.92C565.219 556.429 562.983 556.734 560.848 556.836C543.16 557.65 526.997 545.746 523.032 527.941C518.56 507.999 531.165 488.159 551.191 483.683C571.217 479.104 591.039 491.72 595.512 511.662Z" fill="#A58516"/>
<path d="M587.99 513.697C591.344 528.958 581.789 544.016 566.541 547.475C551.293 550.935 536.146 541.269 532.792 526.109C529.437 510.848 538.993 495.79 554.241 492.331C569.489 488.973 584.534 498.537 587.99 513.697Z" fill="#A58516"/>
<path d="M586.871 513.595C586.871 513.595 586.769 513.493 586.769 513.188C586.668 512.883 586.566 512.476 586.363 511.865C586.261 511.56 586.159 511.255 586.058 510.95C585.956 510.644 585.753 510.237 585.651 509.83C585.346 509.016 584.94 508.101 584.431 507.083C583.415 505.049 581.89 502.81 579.755 500.47C577.621 498.13 574.673 495.892 571.013 494.264C567.353 492.636 563.084 491.517 558.408 491.72C553.732 491.924 548.751 493.246 544.38 496.095C543.261 496.807 542.245 497.621 541.127 498.435C540.618 498.842 540.11 499.351 539.704 499.86C539.195 500.267 538.789 500.877 538.28 501.386C537.365 502.403 536.552 503.522 535.739 504.743C535.027 505.964 534.316 507.185 533.808 508.508C532.689 511.153 531.775 513.9 531.571 516.851C531.266 519.801 531.47 522.854 532.08 525.804C532.791 528.755 533.909 531.603 535.434 534.147C536.959 536.691 538.89 538.929 541.025 540.76C542.042 541.778 543.261 542.49 544.38 543.304C545.599 544.016 546.819 544.728 548.039 545.237C549.259 545.847 550.581 546.254 551.902 546.661C553.224 546.967 554.545 547.272 555.765 547.475C560.949 548.187 566.032 547.272 570.403 545.44C574.774 543.609 578.23 540.76 580.772 537.81C583.313 534.757 585.041 531.502 586.058 528.449C587.074 525.397 587.481 522.752 587.481 520.513C587.583 519.394 587.481 518.377 587.379 517.563C587.379 517.156 587.379 516.749 587.278 516.342C587.176 515.935 587.176 515.63 587.074 515.325C586.973 514.714 586.973 514.307 586.871 514.002C586.871 513.798 586.871 513.595 586.871 513.595C586.871 513.595 586.871 513.697 586.973 514.002C587.074 514.307 587.074 514.816 587.278 515.325C587.379 515.63 587.379 515.935 587.481 516.342C587.481 516.749 587.583 517.054 587.583 517.563C587.684 518.377 587.786 519.394 587.684 520.513C587.684 522.752 587.278 525.499 586.363 528.551C585.346 531.603 583.72 534.961 581.077 538.013C578.434 541.065 574.978 544.016 570.606 545.847C566.235 547.679 561.051 548.696 555.765 547.984C554.443 547.882 553.122 547.475 551.8 547.17C550.479 546.763 549.157 546.356 547.938 545.746C546.616 545.237 545.396 544.525 544.176 543.813C542.956 542.999 541.838 542.185 540.72 541.167C538.585 539.234 536.552 536.996 535.027 534.35C533.503 531.807 532.283 528.856 531.571 525.906C530.961 522.854 530.758 519.801 531.063 516.749C531.266 513.697 532.181 510.848 533.299 508.203C533.808 506.88 534.621 505.659 535.332 504.336C536.146 503.217 536.959 501.996 537.874 500.979C538.28 500.47 538.789 499.961 539.297 499.453C539.805 498.944 540.313 498.435 540.822 498.028C541.94 497.214 542.956 496.299 544.075 495.586C548.547 492.636 553.732 491.313 558.408 491.11C563.186 490.906 567.557 492.025 571.216 493.755C574.876 495.485 577.824 497.723 579.959 500.063C582.093 502.403 583.72 504.743 584.635 506.778C585.143 507.796 585.55 508.711 585.855 509.525C585.956 509.932 586.159 510.339 586.261 510.644C586.363 510.95 586.464 511.357 586.464 511.56C586.566 512.069 586.668 512.577 586.769 512.883C586.871 513.391 586.871 513.595 586.871 513.595Z" fill="#263238"/>
<g opacity="0.3">
<path d="M586.77 513.9C586.566 513.9 586.261 512.781 585.347 510.746C584.432 508.711 582.907 505.862 580.264 503.014C578.942 501.589 577.417 500.165 575.486 498.842C573.656 497.52 571.522 496.4 569.082 495.485C567.862 495.078 566.642 494.671 565.321 494.366C563.999 494.06 562.678 493.857 561.254 493.857C559.831 493.755 558.51 493.755 557.087 493.959C555.663 494.06 554.24 494.366 552.817 494.671C551.394 495.078 550.073 495.485 548.751 496.095C547.43 496.706 546.21 497.316 545.091 498.028C543.872 498.74 542.855 499.554 541.839 500.47C540.822 501.284 539.907 502.301 539.094 503.217C537.467 505.15 536.146 507.185 535.129 509.22C534.113 511.255 533.401 513.29 532.995 515.223C532.08 518.987 532.181 522.243 532.283 524.481C532.486 526.72 532.69 527.941 532.486 527.941C532.385 527.941 531.876 526.821 531.47 524.583C531.063 522.345 530.758 518.987 531.47 514.918C531.876 512.883 532.486 510.746 533.503 508.508C534.519 506.269 535.841 504.031 537.569 501.996C538.484 500.979 539.399 499.961 540.517 498.944C541.635 498.028 542.753 497.113 543.973 496.299C545.193 495.485 546.515 494.772 547.938 494.162C549.361 493.552 550.784 493.043 552.309 492.636C553.834 492.229 555.359 492.025 556.883 491.822C558.408 491.72 559.933 491.72 561.458 491.822C562.983 491.924 564.406 492.127 565.829 492.432C567.252 492.738 568.574 493.145 569.793 493.653C572.335 494.671 574.571 495.993 576.503 497.418C578.434 498.842 580.061 500.47 581.382 502.098C584.025 505.252 585.346 508.406 586.058 510.543C586.77 512.679 586.871 513.9 586.77 513.9Z" fill="black"/>
</g>
<g opacity="0.3">
<path d="M566.134 535.571L567.252 540.353L562.982 541.371L561.864 536.691C557.595 537.403 553.224 537.097 550.377 535.775L551.496 529.976C554.037 531.095 557.391 531.502 560.543 530.993L558.815 523.871C553.834 523.871 548.141 523.566 546.616 517.461C545.498 512.883 547.938 508.203 554.444 505.862L553.325 501.081L557.595 500.063L558.713 504.743C561.966 504.235 565.32 504.336 568.065 505.252L567.15 511.051C564.711 510.339 562.271 510.136 560.034 510.339L561.763 517.665C566.744 517.665 572.335 517.97 573.859 523.973C574.978 528.449 572.64 533.13 566.134 535.571ZM557.29 517.665L555.867 511.56C553.732 512.577 553.122 514.104 553.427 515.528C553.834 516.952 555.257 517.461 557.29 517.665ZM567.15 526.211C566.744 524.685 565.32 524.176 563.389 523.973L564.812 529.874C566.744 528.958 567.455 527.534 567.15 526.211Z" fill="black"/>
</g>
<path d="M515.409 495.383C505.752 515.935 481.152 524.787 460.516 515.019C458.279 514.002 456.145 512.781 454.213 511.357C438.152 500.063 432.053 478.494 440.693 460.18C450.35 439.628 474.951 430.776 495.485 440.544C516.222 450.311 525.066 474.831 515.409 495.383Z" fill="#99A516"/>
<path d="M507.379 492.127C499.958 507.796 481.254 514.511 465.599 507.083C449.944 499.656 443.133 480.935 450.554 465.267C457.975 449.599 476.679 442.884 492.334 450.311C507.989 457.738 514.698 476.459 507.379 492.127Z" fill="#99A516"/>
<path d="M506.565 491.211C506.565 491.211 506.565 491.008 506.769 490.703C506.87 490.398 507.074 489.889 507.277 489.278C507.379 488.973 507.582 488.668 507.684 488.261C507.785 487.854 507.887 487.447 508.09 486.938C508.395 486.023 508.7 485.005 508.903 483.683C509.412 481.241 509.615 478.188 509.31 474.627C509.005 471.168 507.887 467.2 505.854 463.232C503.821 459.366 500.669 455.398 496.502 452.447C492.232 449.497 486.946 447.157 481.152 446.75C479.729 446.546 478.204 446.648 476.679 446.648C475.967 446.648 475.154 446.75 474.443 446.852C473.731 446.953 472.918 447.055 472.206 447.259C470.681 447.462 469.258 447.971 467.733 448.48C466.31 449.09 464.785 449.599 463.464 450.413C460.719 451.939 457.975 453.872 455.84 456.212C453.604 458.552 451.672 461.401 450.249 464.351C448.826 467.404 447.911 470.659 447.504 473.915C447.098 477.171 447.301 480.427 447.911 483.581C448.216 485.107 448.724 486.633 449.131 488.159C449.741 489.584 450.249 491.008 451.062 492.331C451.774 493.755 452.689 494.976 453.502 496.197C454.417 497.316 455.332 498.537 456.45 499.554C460.516 503.726 465.7 506.371 470.681 507.796C475.662 509.118 480.644 509.016 485.015 508.203C489.386 507.287 493.045 505.557 495.993 503.624C498.941 501.691 501.178 499.554 502.702 497.621C503.516 496.706 504.126 495.79 504.634 494.976C504.939 494.569 505.142 494.264 505.345 493.857C505.549 493.552 505.752 493.145 505.854 492.941C506.159 492.432 506.362 491.924 506.565 491.618C506.464 491.313 506.464 491.211 506.565 491.211C506.565 491.211 506.464 491.415 506.362 491.72C506.159 492.025 505.955 492.534 505.65 493.043C505.549 493.348 505.345 493.653 505.142 494.06C504.939 494.366 504.634 494.772 504.431 495.179C503.922 495.993 503.312 496.909 502.499 497.927C500.974 499.961 498.738 502.098 495.79 504.133C492.842 506.168 489.081 507.897 484.71 508.915C480.339 509.83 475.256 510.034 470.173 508.61C465.09 507.185 459.804 504.642 455.637 500.267C454.518 499.249 453.604 498.028 452.689 496.909C451.875 495.688 450.859 494.366 450.249 493.043C449.436 491.72 448.927 490.194 448.317 488.77C447.809 487.244 447.301 485.717 447.098 484.09C446.488 480.935 446.284 477.578 446.691 474.22C447.098 470.863 448.013 467.607 449.436 464.453C450.96 461.401 452.892 458.552 455.23 456.11C457.466 453.668 460.211 451.735 463.057 450.107C464.48 449.293 466.005 448.683 467.428 448.073C468.953 447.564 470.478 447.055 472.003 446.852C472.816 446.648 473.528 446.546 474.341 446.445C475.154 446.343 475.866 446.241 476.679 446.241C478.204 446.241 479.729 446.139 481.152 446.343C487.149 446.852 492.435 449.192 496.807 452.244C501.178 455.296 504.227 459.366 506.26 463.334C508.293 467.302 509.31 471.372 509.615 474.933C509.92 478.494 509.717 481.546 509.107 483.988C508.903 485.209 508.598 486.328 508.293 487.244C508.192 487.752 507.988 488.159 507.887 488.464C507.684 488.871 507.582 489.177 507.48 489.482C507.277 490.092 507.074 490.499 506.87 490.805C506.565 491.11 506.565 491.211 506.565 491.211Z" fill="#263238"/>
<g opacity="0.3">
<path d="M506.159 491.415C505.955 491.313 506.464 489.991 507.074 487.651C507.582 485.31 508.293 481.749 507.887 477.374C507.684 475.238 507.379 472.898 506.565 470.456C505.854 468.014 504.736 465.572 503.211 463.13C502.499 461.91 501.584 460.79 500.669 459.671C499.754 458.552 498.636 457.433 497.518 456.415C496.4 455.398 495.18 454.482 493.757 453.567C492.435 452.753 491.012 451.939 489.487 451.328C487.963 450.718 486.438 450.209 484.913 449.802C483.388 449.395 481.863 449.192 480.339 448.988C478.814 448.785 477.289 448.785 475.866 448.886C474.341 448.988 472.918 449.192 471.596 449.395C468.852 449.904 466.31 450.82 463.972 451.939C461.736 453.058 459.703 454.381 458.076 455.703C454.722 458.45 452.587 461.299 451.164 463.334C449.842 465.369 449.131 466.59 449.029 466.59C448.927 466.488 449.232 465.165 450.351 462.927C451.469 460.689 453.502 457.535 456.958 454.482C458.686 452.956 460.719 451.532 463.057 450.209C465.395 448.988 468.14 447.869 471.088 447.259C472.613 446.953 474.138 446.648 475.662 446.546C477.289 446.445 478.915 446.445 480.542 446.546C482.168 446.648 483.896 446.953 485.523 447.36C487.149 447.767 488.776 448.378 490.402 448.988C492.029 449.7 493.554 450.514 494.977 451.43C496.4 452.346 497.721 453.363 498.941 454.482C500.161 455.602 501.279 456.822 502.296 458.043C503.312 459.264 504.227 460.587 504.939 461.91C506.464 464.555 507.582 467.2 508.293 469.846C509.005 472.491 509.31 474.933 509.412 477.273C509.513 481.851 508.598 485.514 507.785 487.854C507.074 490.296 506.26 491.517 506.159 491.415Z" fill="black"/>
</g>
<g opacity="0.3">
<path d="M473.324 496.299L471.088 501.284L466.615 499.249L468.851 494.366C464.582 492.127 460.922 488.77 459.397 485.819L464.277 481.444C465.802 484.09 468.445 486.735 471.494 488.566L474.849 481.139C470.478 477.68 465.7 473.508 468.546 467.2C470.681 462.52 475.967 459.976 483.388 462.418L485.624 457.433L490.097 459.468L487.861 464.351C491.114 466.183 493.96 468.523 495.688 471.168L491.012 475.645C489.284 473.305 487.352 471.473 485.218 470.252L481.761 477.781C486.132 481.139 490.91 485.31 488.064 491.618C485.929 496.197 480.643 498.639 473.324 496.299ZM477.797 474.627L480.643 468.319C478 467.811 476.475 468.625 475.865 470.151C475.154 471.575 476.069 473.101 477.797 474.627ZM480.542 488.77C481.253 487.244 480.338 485.819 478.712 484.191L475.967 490.296C478.407 490.906 479.932 490.194 480.542 488.77Z" fill="black"/>
</g>
<path d="M254.158 424.875C242.264 431.081 233.115 441.663 226.61 453.363C220.002 465.064 215.834 477.883 211.666 490.601L208.007 556.327C221.832 532.723 233.014 505.048 235.962 477.781C232.912 477.476 229.862 477.273 226.711 476.967C232.912 476.052 238.096 471.575 241.349 466.183C244.602 460.892 246.33 454.788 248.059 448.683C244.297 449.192 240.536 449.802 236.775 450.311C245.517 444.613 251.921 435.253 254.158 424.875Z" fill="#455A64"/>
<g opacity="0.3">
<path d="M254.158 424.875C242.264 431.081 233.115 441.663 226.61 453.363C220.002 465.064 215.834 477.883 211.666 490.601L208.007 556.327C221.832 532.723 233.014 505.048 235.962 477.781C232.912 477.476 229.862 477.273 226.711 476.967C232.912 476.052 238.096 471.575 241.349 466.183C244.602 460.892 246.33 454.788 248.059 448.683C244.297 449.192 240.536 449.802 236.775 450.311C245.517 444.613 251.921 435.253 254.158 424.875Z" fill="black"/>
</g>
<path d="M205.872 571.792C205.872 571.792 175.782 535.775 176.189 501.386H188.286C188.286 501.386 175.07 492.738 176.087 487.854C177.104 482.97 177.51 464.555 177.51 464.555L188.59 467.302C188.59 467.302 180.255 463.13 179.238 456.517C178.222 449.904 181.678 419.381 181.678 419.381C181.678 419.381 195.198 433.625 199.366 448.174C203.534 462.723 214.411 479.816 211.259 524.278C208.108 568.74 205.872 571.792 205.872 571.792Z" fill="#455A64"/>
<path d="M221.12 575.251C221.12 575.251 253.649 553.58 260.968 525.804L251.21 523.159C251.21 523.159 263.713 519.089 263.916 514.918C264.12 510.746 267.881 495.892 267.881 495.892L258.325 495.688C258.325 495.688 265.949 494.162 268.186 489.075C270.422 483.988 274.387 458.654 274.387 458.654C274.387 458.654 260.358 467.098 253.853 477.985C247.347 488.77 234.843 500.063 227.626 536.487C220.408 572.911 221.12 575.251 221.12 575.251Z" fill="#455A64"/>
<path d="M189.912 450.82C189.912 450.82 189.912 450.921 190.014 451.227C190.115 451.532 190.115 451.837 190.319 452.346C190.522 453.363 190.827 454.788 191.234 456.619C191.64 458.45 192.149 460.79 192.657 463.436C193.165 466.081 193.775 469.133 194.385 472.491C195.706 479.206 197.028 487.142 198.451 495.993C199.773 504.845 201.196 514.714 202.314 524.99C203.534 535.266 204.449 545.135 205.16 554.089C205.872 563.042 206.278 571.181 206.583 577.896C206.787 581.254 206.787 584.408 206.888 587.053C206.99 589.8 206.99 592.039 207.092 593.972C207.092 595.803 207.092 597.329 207.092 598.347C207.092 598.855 207.092 599.161 207.092 599.466C207.092 599.771 207.092 599.873 207.092 599.873C207.092 599.873 207.092 599.771 207.092 599.466C207.092 599.161 207.092 598.855 206.99 598.347C206.99 597.329 206.888 595.803 206.888 593.972C206.888 592.039 206.787 589.698 206.685 587.053C206.583 584.306 206.482 581.254 206.278 577.896C205.973 571.08 205.465 563.042 204.754 554.089C204.042 545.135 203.127 535.266 201.907 524.99C200.687 514.714 199.366 504.947 198.044 495.993C196.723 487.142 195.401 479.104 194.08 472.491C193.47 469.133 192.86 466.081 192.352 463.436C191.844 460.79 191.437 458.45 191.03 456.619C190.624 454.788 190.42 453.363 190.217 452.346C190.115 451.837 190.014 451.532 190.014 451.227C189.912 451.023 189.912 450.82 189.912 450.82Z" fill="#263238"/>
<path d="M201.704 593.87C201.704 593.87 174.156 562.635 165.617 543.711L172.021 540.964C167.345 541.778 162.567 539.743 158.908 536.69C155.248 533.638 152.605 529.67 149.962 525.702L158.501 524.278C150.877 522.04 144.066 516.749 140 509.83C150.064 511.458 159.111 516.952 166.532 523.871C172.631 529.467 177.714 535.877 182.593 542.592C185.033 545.847 187.066 549.307 188.896 552.868C193.572 562.431 201.704 582.373 201.704 593.87Z" fill="#455A64"/>
<path d="M261.273 476.866C261.273 476.866 261.273 476.967 261.172 477.171C261.07 477.374 260.968 477.68 260.765 478.087C260.359 478.901 259.85 480.122 259.037 481.546C257.512 484.496 255.479 488.871 252.938 494.366C250.396 499.758 247.448 506.269 244.297 513.493C241.146 520.717 237.893 528.755 234.538 537.301C231.285 545.847 228.338 553.987 225.694 561.414C223.153 568.943 220.917 575.658 219.189 581.356C217.461 587.053 216.037 591.733 215.122 594.887C214.614 596.515 214.309 597.736 214.004 598.55C213.903 598.957 213.801 599.262 213.699 599.466C213.598 599.669 213.598 599.771 213.598 599.771C213.598 599.771 213.598 599.669 213.699 599.466C213.801 599.262 213.801 598.855 213.903 598.448C214.106 597.533 214.513 596.312 214.919 594.684C215.732 591.428 217.156 586.85 218.884 581.05C220.612 575.353 222.747 568.536 225.288 561.007C227.829 553.478 230.777 545.339 234.03 536.792C237.283 528.246 240.638 520.208 243.789 512.984C246.94 505.761 249.888 499.249 252.531 493.857C255.073 488.464 257.207 484.089 258.834 481.139C259.545 479.715 260.155 478.494 260.562 477.68C260.765 477.273 260.867 477.069 261.07 476.764C261.273 476.967 261.273 476.866 261.273 476.866Z" fill="#263238"/>
<path d="M204.042 607.3C204.042 607.3 203.94 607.097 203.94 606.69C203.838 606.283 203.737 605.672 203.635 605.062C203.533 604.349 203.432 603.434 203.228 602.416C203.025 601.399 202.822 600.28 202.619 598.957C202.11 596.414 201.399 593.361 200.484 590.105C199.569 586.748 198.451 583.187 197.028 579.422C195.604 575.658 194.08 572.199 192.555 569.146C191.03 566.094 189.607 563.347 188.285 561.109C187.675 559.99 187.065 558.972 186.456 558.056C185.947 557.141 185.439 556.429 185.032 555.818C184.626 555.208 184.422 554.801 184.117 554.394C183.914 554.089 183.812 553.885 183.812 553.885C183.812 553.885 183.914 553.987 184.219 554.292C184.524 554.699 184.829 555.106 185.236 555.615C185.642 556.225 186.151 556.937 186.76 557.853C187.269 558.769 187.98 559.684 188.59 560.804C189.912 563.042 191.437 565.789 192.961 568.841C194.486 571.995 196.011 575.455 197.434 579.117C198.857 582.882 199.976 586.443 200.89 589.8C201.805 593.158 202.415 596.21 202.923 598.754C203.127 600.076 203.33 601.195 203.533 602.213C203.737 603.23 203.838 604.146 203.838 604.858C203.94 605.57 203.94 606.079 204.042 606.486C204.042 607.097 204.042 607.3 204.042 607.3Z" fill="#263238"/>
<path d="M240.231 599.873H180.052V612.184H240.231V599.873Z" fill="#16A571"/>
<path d="M185.846 612.184L192.352 653.593H228.744L234.843 612.184H185.846Z" fill="#16A571"/>
<path d="M236.571 612.184C236.571 612.285 225.186 612.489 211.158 612.489C197.129 612.489 185.744 612.387 185.744 612.184C185.744 611.98 197.129 611.878 211.158 611.878C225.186 611.98 236.571 612.082 236.571 612.184Z" fill="#263238"/>
<path d="M683.24 654H524.964C520.593 654 516.934 650.439 516.934 645.962V538.115C516.934 533.74 520.492 530.077 524.964 530.077H683.24C687.611 530.077 691.27 533.638 691.27 538.115V646.064C691.169 650.439 687.611 654 683.24 654Z" fill="#455A64"/>
<path d="M688.627 610.047H643.493C635.97 610.047 629.973 603.943 629.973 596.515V594.277C629.973 586.748 636.072 580.745 643.493 580.745H688.627C696.15 580.745 702.147 586.85 702.147 594.277V596.515C702.147 603.943 696.15 610.047 688.627 610.047Z" fill="#455A64"/>
<path d="M688.628 610.556H643.493C635.767 610.556 629.465 604.248 629.465 596.515V594.277C629.465 586.545 635.767 580.236 643.493 580.236H688.628C696.353 580.236 702.656 586.545 702.656 594.277V596.515C702.656 604.248 696.353 610.556 688.628 610.556ZM643.493 581.152C636.276 581.152 630.481 587.053 630.481 594.175V596.414C630.481 603.637 636.377 609.437 643.493 609.437H688.628C695.845 609.437 701.639 603.536 701.639 596.414V594.175C701.639 586.952 695.743 581.152 688.628 581.152H643.493Z" fill="#263238"/>
<path d="M654.576 601.296C657.87 596.609 656.744 590.135 652.06 586.838C647.377 583.541 640.909 584.668 637.615 589.356C634.32 594.043 635.446 600.517 640.13 603.814C644.814 607.111 651.281 605.984 654.576 601.296Z" fill="#263238"/>
<path d="M633.429 305.734C633.124 316.417 637.699 327.202 645.526 334.426C647.356 329.237 649.186 323.946 650.914 318.757" fill="#263238"/>
<path d="M674.295 274.499C669.619 271.956 664.028 271.549 658.843 272.668C653.659 273.685 648.779 276.025 644.205 278.671C641.664 280.197 639.021 281.825 637.191 284.165C633.836 288.438 630.482 295.357 630.177 300.851C629.872 305.226 631.6 316.214 633.43 320.182C635.158 323.845 643.087 326.592 647.051 327.507L683.037 285.589C681.715 280.909 678.564 276.738 674.295 274.499Z" fill="#263238"/>
<path d="M680.495 280.095L671.854 278.569C676.531 289.862 677.852 315.502 680.597 327.406C683.748 322.827 691.169 308.685 690.762 303.089C690.356 297.595 690.762 279.179 680.495 280.095Z" fill="#263238"/>
<path d="M685.476 298.511C684.866 289.862 679.174 279.281 670.635 280.197L650.71 285.284C644.306 286.912 640.037 292.304 639.63 298.918C639.63 299.223 639.528 298.816 639.63 299.121L644.103 350.603L659.046 380.21L672.261 355.181C672.261 351.01 672.261 341.548 672.261 341.548C672.261 341.548 683.24 339.716 685.476 325.269C686.493 318.147 686.086 308.074 685.476 298.511Z" fill="#FFBF9D"/>
<path d="M679.276 310.313C679.276 311.33 678.564 312.144 677.548 312.144C676.531 312.246 675.718 311.432 675.616 310.516C675.616 309.499 676.328 308.685 677.344 308.685C678.361 308.583 679.276 309.295 679.276 310.313Z" fill="#263238"/>
<path d="M683.241 304.106C683.037 304.31 681.614 303.293 679.581 303.293C677.65 303.293 676.125 304.31 675.921 304.106C675.82 304.005 676.023 303.598 676.633 303.089C677.243 302.58 678.361 302.173 679.581 302.173C680.801 302.173 681.817 302.58 682.427 303.089C683.241 303.598 683.444 304.005 683.241 304.106Z" fill="#263238"/>
<path d="M662.706 310.313C662.706 311.33 661.995 312.144 660.978 312.144C659.962 312.246 659.149 311.432 659.047 310.516C659.047 309.499 659.758 308.685 660.775 308.685C661.792 308.583 662.605 309.295 662.706 310.313Z" fill="#263238"/>
<path d="M664.434 304.106C664.231 304.31 662.807 303.293 660.774 303.293C658.843 303.293 657.318 304.31 657.115 304.106C657.013 304.005 657.216 303.598 657.826 303.089C658.436 302.58 659.554 302.173 660.774 302.173C661.994 302.173 663.011 302.58 663.621 303.089C664.332 303.598 664.536 304.005 664.434 304.106Z" fill="#263238"/>
<path d="M670.635 319.673C670.635 319.571 671.855 319.368 673.888 319.063C674.396 318.961 674.905 318.859 675.006 318.554C675.108 318.147 674.905 317.638 674.701 317.028C674.193 315.807 673.685 314.484 673.177 313.162C671.042 307.667 669.619 303.191 669.822 303.089C670.025 302.987 671.957 307.362 673.99 312.856C674.498 314.179 675.006 315.502 675.413 316.723C675.616 317.333 675.921 317.943 675.718 318.757C675.616 319.164 675.21 319.368 674.905 319.47C674.6 319.571 674.295 319.571 674.092 319.571C671.957 319.775 670.635 319.775 670.635 319.673Z" fill="#263238"/>
<path d="M653.049 336.461C653.049 336.461 657.725 346.33 672.16 345.007V341.65C672.058 341.548 662.604 342.158 653.049 336.461Z" fill="#FF9A6C"/>
<path d="M663.824 296.883C663.621 297.391 661.689 297.188 659.351 297.493C657.013 297.697 655.183 298.409 654.878 297.9C654.777 297.697 655.082 297.188 655.793 296.679C656.505 296.171 657.725 295.662 659.148 295.458C660.571 295.255 661.791 295.56 662.706 295.865C663.519 296.272 663.926 296.679 663.824 296.883Z" fill="#263238"/>
<path d="M682.631 298.002C682.326 298.409 680.902 298.002 679.276 298.002C677.65 297.9 676.226 298.307 675.921 297.798C675.82 297.595 676.023 297.086 676.633 296.679C677.243 296.272 678.259 295.865 679.378 295.967C680.496 295.967 681.512 296.374 682.021 296.883C682.631 297.391 682.834 297.798 682.631 298.002Z" fill="#263238"/>
<path d="M681.512 285.284C680.598 283.147 678.26 281.825 675.921 281.723C673.583 281.621 671.347 282.537 669.314 283.656C660.775 288.642 656.302 300.545 647.865 305.734C645.832 306.955 643.087 305.836 641.257 307.464C639.529 309.092 638.309 311.839 639.326 314.077C638.208 312.551 636.988 310.923 636.378 309.092C635.768 307.26 635.666 305.124 636.581 303.496C637.293 302.275 638.614 301.258 638.919 299.833C639.224 298.612 638.716 297.29 638.818 295.967C638.919 294.644 639.529 293.423 640.139 292.304C643.494 286.403 647.967 281.113 653.863 277.857C657.725 275.72 662.097 274.398 666.468 274.601C670.839 274.703 675.21 276.331 678.463 279.383C680.496 281.113 682.529 282.944 681.512 285.284Z" fill="#263238"/>
<path d="M641.562 309.295C641.46 308.888 633.938 306.141 633.836 314.179C633.734 321.911 641.562 320.385 641.562 320.182C641.562 319.877 641.562 309.295 641.562 309.295Z" fill="#FFBF9D"/>
<path d="M639.224 317.13C639.224 317.13 639.122 317.231 638.817 317.333C638.614 317.435 638.207 317.537 637.801 317.333C636.987 317.028 636.276 315.705 636.276 314.281C636.276 313.569 636.377 312.856 636.682 312.348C636.886 311.737 637.292 311.432 637.699 311.33C638.106 311.228 638.411 311.534 638.512 311.737C638.614 311.941 638.614 312.144 638.614 312.144C638.614 312.144 638.817 312.042 638.716 311.737C638.716 311.534 638.614 311.432 638.411 311.228C638.207 311.025 638.004 311.025 637.699 311.025C637.089 311.025 636.581 311.635 636.276 312.246C635.971 312.856 635.768 313.569 635.768 314.382C635.768 315.909 636.581 317.435 637.699 317.74C638.207 317.842 638.716 317.74 638.919 317.537C639.122 317.333 639.224 317.231 639.224 317.13Z" fill="#FF9A6C"/>
<path d="M638.513 305.327C638.513 305.327 638.716 305.226 639.021 305.022C639.326 304.819 639.733 304.615 640.342 304.208C641.461 303.394 642.884 302.173 644.51 300.444C646.137 298.714 647.763 296.374 649.593 293.83C651.423 291.287 653.456 288.438 655.997 285.894C657.319 284.674 658.64 283.554 660.165 282.639C661.588 281.723 663.113 281.113 664.638 280.604C667.586 279.688 670.432 279.383 672.872 279.586C675.21 279.688 677.141 280.197 678.361 280.706C678.971 280.909 679.479 281.113 679.784 281.214C680.089 281.316 680.293 281.418 680.293 281.418C680.293 281.418 680.089 281.316 679.784 281.214C679.479 281.113 678.971 280.807 678.361 280.604C677.141 280.095 675.21 279.586 672.872 279.383C670.534 279.179 667.586 279.383 664.536 280.299C663.011 280.807 661.487 281.418 659.962 282.333C658.437 283.249 657.115 284.368 655.794 285.589C653.253 288.133 651.219 291.083 649.39 293.627C647.56 296.171 645.933 298.511 644.307 300.342C642.782 302.173 641.257 303.394 640.241 304.208C639.733 304.615 639.224 304.92 639.021 305.124C638.614 305.124 638.513 305.327 638.513 305.327Z" fill="#455A64"/>
<path d="M640.444 307.464C640.343 309.601 640.241 311.839 641.156 313.67C642.172 315.502 644.612 316.824 646.442 315.807C647.967 314.993 648.373 313.06 648.678 311.33C649.39 306.345 649.796 301.359 650.508 296.476L640.444 307.464Z" fill="#263238"/>
<path d="M679.682 281.621C679.682 281.621 678.97 281.52 677.75 281.418C676.531 281.418 674.701 281.52 672.668 282.333C671.651 282.74 670.533 283.249 669.415 283.961C668.297 284.674 667.178 285.589 666.06 286.505C663.824 288.438 661.587 290.778 659.554 293.525C658.538 294.95 657.725 296.374 656.708 297.595C655.793 298.918 654.777 300.138 653.557 301.054C651.32 302.987 648.982 304.412 647.051 305.429C645.119 306.447 643.391 307.26 642.273 307.769C641.765 307.973 641.257 308.176 640.952 308.38C640.647 308.481 640.443 308.583 640.443 308.583C640.443 308.583 640.545 308.481 640.85 308.38C641.155 308.176 641.663 307.973 642.171 307.769C643.29 307.26 644.916 306.447 646.848 305.327C648.779 304.208 651.117 302.886 653.252 300.952C654.37 299.935 655.387 298.816 656.301 297.493C657.216 296.171 658.131 294.746 659.046 293.322C661.079 290.473 663.417 288.235 665.654 286.301C666.772 285.386 667.89 284.47 669.008 283.758C670.126 283.046 671.245 282.537 672.261 282.13C674.396 281.316 676.226 281.214 677.547 281.316C678.157 281.316 678.665 281.418 678.97 281.52C679.479 281.621 679.682 281.621 679.682 281.621Z" fill="#455A64"/>
<path d="M640.24 302.682C640.24 302.682 640.037 302.886 639.529 303.191C639.02 303.496 638.309 303.903 637.597 304.31C637.394 304.412 637.191 304.513 636.987 304.717C636.784 304.819 636.479 304.92 636.174 305.022C635.971 305.022 635.869 305.022 635.666 304.92C635.462 304.819 635.361 304.615 635.361 304.412C635.361 304.005 635.564 303.699 635.767 303.394C636.479 302.275 637.191 301.054 638.004 299.732L638.309 300.037C637.597 300.545 636.784 301.054 635.869 301.258C634.954 301.563 634.039 301.665 633.124 301.563C632.921 301.563 632.616 301.563 632.413 301.461C632.209 301.359 631.905 301.258 631.803 300.952C631.701 300.647 631.803 300.342 631.905 300.139C632.006 299.935 632.209 299.833 632.311 299.63C633.429 298.511 634.344 297.391 634.954 296.272C636.174 294.136 636.581 292.711 636.581 292.711C636.581 292.711 636.581 293.118 636.377 293.729C636.174 294.339 635.767 295.357 635.259 296.374C634.649 297.493 633.836 298.714 632.616 299.833C632.311 300.138 632.006 300.444 632.108 300.647C632.209 300.851 632.616 301.054 633.023 301.054C633.836 301.054 634.751 300.952 635.666 300.749C636.581 300.444 637.292 300.037 638.004 299.63L638.919 298.918L638.309 299.833C637.496 301.156 636.682 302.377 635.971 303.496C635.767 303.801 635.666 304.005 635.666 304.208C635.666 304.412 635.869 304.513 636.072 304.513C636.581 304.513 636.987 304.106 637.495 303.903C638.309 303.496 639.02 303.191 639.529 302.886C639.935 302.784 640.24 302.682 640.24 302.682Z" fill="#455A64"/>
<path d="M668.907 323.438C668.195 322.522 666.975 322.115 665.755 322.318C664.942 322.42 664.129 322.827 663.621 323.539C663.112 324.252 663.112 325.167 663.519 325.778C664.027 326.49 665.145 326.592 666.06 326.286C666.975 325.981 667.687 325.371 668.5 324.76C668.703 324.557 668.907 324.455 669.008 324.15C669.212 323.946 669.212 323.743 668.907 323.438Z" fill="#FF9A6C"/>
<path d="M664.028 320.385C664.333 320.385 664.434 322.42 666.264 323.743C668.094 325.167 670.33 324.862 670.33 325.167C670.33 325.269 669.822 325.574 668.907 325.676C667.992 325.778 666.671 325.472 665.552 324.659C664.434 323.845 663.926 322.624 663.824 321.81C663.621 320.894 663.926 320.385 664.028 320.385Z" fill="#263238"/>
<path d="M692.897 458.145L701.233 476.968L660.775 492.025L651.829 471.779L692.897 458.145Z" fill="#263238"/>
<path d="M774.525 572.606L785.606 596.515C785.606 596.515 813.154 592.853 815.695 597.126L770.561 620.628L751.856 584.103L774.525 572.606Z" fill="#455A64"/>
<path d="M770.866 601.602C770.052 602.315 769.951 603.637 770.662 604.349C771.374 605.163 772.695 605.265 773.407 604.553C774.22 603.841 774.322 602.315 773.61 601.602C772.899 600.89 771.272 600.789 770.662 601.704" fill="#E0E0E0"/>
<path d="M770.561 620.628L769.036 617.678L813.256 595.701C813.256 595.701 815.187 595.905 816 597.126L770.561 620.628Z" fill="#263238"/>
<path d="M786.114 596.414C786.216 596.617 785.199 597.329 784.386 598.55C783.573 599.771 783.573 601.094 783.268 601.094C783.064 601.195 782.658 599.669 783.573 598.143C784.589 596.617 786.012 596.21 786.114 596.414Z" fill="#263238"/>
<path d="M791.908 596.007C792.111 596.21 791.298 597.024 790.993 598.448C790.688 599.771 790.993 600.89 790.79 600.992C790.586 601.094 789.773 599.873 790.18 598.245C790.485 596.515 791.806 595.803 791.908 596.007Z" fill="#263238"/>
<path d="M797.601 600.382C797.397 600.483 796.584 599.568 796.482 598.041C796.381 596.515 797.194 595.498 797.397 595.6C797.601 595.701 797.296 596.719 797.296 597.94C797.397 599.262 797.804 600.178 797.601 600.382Z" fill="#263238"/>
<path d="M782.963 591.225C782.963 591.428 781.743 591.733 780.523 592.446C779.303 593.158 778.49 594.073 778.287 593.972C778.084 593.87 778.592 592.547 780.117 591.733C781.54 590.818 782.963 591.021 782.963 591.225Z" fill="#263238"/>
<path d="M781.234 585.731C781.234 585.832 780.421 586.443 778.896 586.85C778.083 587.053 777.168 587.257 776.152 587.358C775.643 587.358 775.033 587.358 774.525 587.358C774.22 587.358 773.915 587.358 773.509 587.155C773.102 587.053 772.695 586.544 772.797 586.036C772.899 585.527 773.204 585.222 773.509 585.018C773.814 584.815 774.119 584.815 774.423 584.713C775.033 584.611 775.542 584.51 776.05 584.51C777.168 584.51 778.083 584.611 778.896 584.815C780.421 585.222 781.234 585.934 781.234 586.036C781.133 586.138 780.319 585.731 778.795 585.425C778.083 585.324 777.168 585.222 776.152 585.324C775.643 585.324 775.135 585.425 774.627 585.629C774.119 585.731 773.712 585.934 773.61 586.239C773.61 586.341 773.61 586.341 773.814 586.443C774.017 586.545 774.22 586.544 774.525 586.544C775.033 586.646 775.542 586.646 776.05 586.646C777.067 586.646 777.981 586.545 778.693 586.341C780.218 586.036 781.133 585.629 781.234 585.731Z" fill="#263238"/>
<path d="M731.628 610.963L730.205 637.212C730.205 637.212 756.33 646.878 756.533 651.762L705.604 651.456L706.113 610.454L731.628 610.963Z" fill="#455A64"/>
<path d="M714.855 634.872C713.839 635.178 713.127 636.195 713.331 637.212C713.534 638.23 714.652 638.942 715.669 638.739C716.685 638.535 717.6 637.212 717.194 636.195C716.889 635.178 715.465 634.465 714.551 634.872" fill="#E0E0E0"/>
<path d="M705.604 651.558V648.302L755.008 649.625C755.008 649.625 756.635 650.642 756.737 652.169L705.604 651.558Z" fill="#263238"/>
<path d="M730.713 637.416C730.713 637.619 729.493 637.721 728.172 638.535C726.952 639.247 726.24 640.366 726.037 640.265C725.834 640.163 726.24 638.739 727.765 637.823C729.188 636.907 730.713 637.212 730.713 637.416Z" fill="#263238"/>
<path d="M735.999 639.756C736.101 639.96 734.983 640.366 734.068 641.486C733.153 642.503 732.95 643.622 732.645 643.622C732.442 643.622 732.238 642.198 733.356 640.875C734.576 639.654 735.999 639.553 735.999 639.756Z" fill="#263238"/>
<path d="M738.947 646.268C738.744 646.268 738.439 645.047 739.049 643.724C739.659 642.401 740.879 641.791 740.98 641.994C741.082 642.198 740.37 642.91 739.862 644.029C739.354 645.25 739.252 646.268 738.947 646.268Z" fill="#263238"/>
<path d="M730.307 631.413C730.205 631.617 729.087 631.311 727.664 631.311C726.24 631.311 725.122 631.82 725.021 631.617C724.919 631.413 725.936 630.497 727.664 630.497C729.29 630.396 730.408 631.21 730.307 631.413Z" fill="#263238"/>
<path d="M731.323 625.715C731.323 625.817 730.306 625.919 728.781 625.614C727.968 625.512 727.053 625.207 726.138 624.698C725.63 624.495 725.122 624.189 724.715 623.884C724.512 623.681 724.207 623.579 723.902 623.274C723.597 622.968 723.495 622.358 723.8 621.951C724.105 621.544 724.512 621.442 724.919 621.442C725.325 621.442 725.63 621.544 725.833 621.544C726.443 621.646 726.952 621.849 727.46 622.154C728.476 622.663 729.188 623.172 729.798 623.782C731.018 624.902 731.323 625.817 731.323 625.919C731.221 626.021 730.611 625.207 729.493 624.291C728.883 623.782 728.171 623.375 727.257 622.968C726.85 622.765 726.342 622.561 725.833 622.46C725.325 622.358 724.817 622.256 724.715 622.561C724.614 622.663 724.614 622.663 724.817 622.867C724.919 622.968 725.122 623.172 725.427 623.274C725.833 623.579 726.342 623.884 726.748 624.088C727.663 624.596 728.476 624.902 729.188 625.105C730.408 625.512 731.323 625.614 731.323 625.715Z" fill="#263238"/>
<path d="M615.233 484.802C615.233 484.802 717.193 471.982 723.19 471.982C737.32 471.982 746.164 482.767 748.299 491.008C749.824 497.113 781.235 585.832 781.235 585.832L758.057 598.041L724.003 537.403L706.62 507.185L617.165 521.022L615.233 484.802Z" fill="#263238"/>
<path d="M710.89 504.438C710.89 504.438 724.817 504.438 732.441 515.63C736.914 522.243 735.287 533.943 735.389 542.795C735.491 554.902 732.644 628.463 732.644 628.463L704.079 628.971L698.082 552.257L698.387 538.115L641.359 533.435C641.359 533.435 636.175 516.139 648.983 502.505C650.508 500.775 710.89 504.438 710.89 504.438Z" fill="#263238"/>
<path d="M623.976 460.18C623.976 460.18 601.409 494.874 615.233 521.022C621.841 533.435 641.562 533.435 641.562 533.435L661.791 508.101V466.183L623.976 460.18Z" fill="#263238"/>
<path d="M641.562 533.333C641.562 533.333 641.663 533.231 641.968 533.13C642.273 533.028 642.578 532.824 643.086 532.621C644.103 532.112 645.628 531.502 647.457 530.586C651.32 528.856 656.81 526.415 663.722 523.362C670.635 520.31 678.767 516.749 687.814 512.679C692.389 510.644 697.065 508.61 702.046 506.371C703.266 505.862 704.485 505.252 705.807 504.743C707.128 504.235 708.45 503.929 709.873 503.726C712.618 503.319 715.566 503.319 718.412 503.624C721.258 503.929 724.105 504.743 726.646 505.964C727.866 506.575 729.187 507.287 730.204 508.304C731.22 509.22 732.135 510.339 732.745 511.56C734.168 513.9 734.88 516.545 735.083 519.191C735.185 520.513 735.083 521.836 735.083 523.057C735.083 524.278 735.083 525.601 735.083 526.821C734.982 536.691 734.88 545.644 734.778 553.173C734.677 560.6 734.575 566.705 734.575 570.978C734.575 573.013 734.473 574.641 734.473 575.76C734.473 576.269 734.473 576.675 734.473 576.981C734.473 577.286 734.473 577.388 734.473 577.388C734.473 577.388 734.473 577.286 734.473 576.981C734.473 576.675 734.473 576.269 734.473 575.76C734.473 574.641 734.473 573.013 734.473 570.978C734.473 566.705 734.473 560.702 734.575 553.173C734.575 545.644 734.677 536.691 734.778 526.821C734.778 525.601 734.778 524.278 734.778 523.057C734.778 521.836 734.88 520.513 734.778 519.191C734.575 516.647 733.762 514.104 732.44 511.764C731.729 510.644 730.916 509.525 730.001 508.61C728.984 507.694 727.866 506.982 726.646 506.371C724.206 505.15 721.462 504.438 718.615 504.133C715.769 503.828 713.024 503.828 710.28 504.235C708.958 504.438 707.637 504.743 706.315 505.252C704.994 505.659 703.774 506.269 702.554 506.778C697.573 508.915 692.897 511.051 688.322 512.984C679.275 516.952 671.041 520.513 664.23 523.566C657.42 526.516 651.829 528.958 647.966 530.586C646.034 531.4 644.611 532.01 643.493 532.519C642.985 532.723 642.578 532.926 642.375 533.028C641.663 533.333 641.562 533.333 641.562 533.333Z" fill="#455A64"/>
<path d="M721.157 472.084C721.157 472.186 699.708 474.627 673.379 477.476C646.949 480.325 625.5 482.462 625.5 482.36C625.5 482.258 646.847 479.816 673.379 476.968C699.708 474.119 721.157 471.88 721.157 472.084Z" fill="#455A64"/>
<path d="M695.947 421.518C697.573 416.227 703.368 396.794 702.046 386.518C701.03 378.379 693.711 367.899 691.474 362.303C690.458 359.658 682.224 356.911 677.344 355.487L672.465 349.687L672.058 352.536C669.72 355.588 664.942 357.725 660.368 357.318C653.151 356.707 647.255 353.757 643.188 349.382C624.382 355.08 624.382 356.402 620.824 357.827C616.148 359.658 630.075 404.323 630.075 404.323C630.075 404.323 635.056 432.404 630.38 441.866C627.737 447.157 624.687 453.261 622.451 458.247C622.451 458.247 616.148 470.151 617.572 469.846C620.418 469.235 639.935 473.915 658.335 474.933C692.287 476.764 698.793 471.677 698.793 471.677C697.065 463.029 694.015 432.506 694.015 426.605C694.117 425.486 695.744 422.433 695.947 421.518Z" fill="#16A571"/>
<path d="M673.177 351.112C673.177 351.112 695.337 356.809 697.472 359.76C703.368 367.797 738.845 422.535 721.361 438.916C709.976 449.599 693.914 427.012 693.914 427.012L673.177 351.112Z" fill="#16A571"/>
<path d="M719.226 415.617C719.226 415.617 718.718 415.515 717.701 415.311C716.583 415.108 715.16 414.803 713.432 414.396C709.874 413.683 704.791 412.666 698.997 411.75L699.302 411.547C698.692 412.971 698.184 414.396 697.574 415.82C696.049 419.483 694.727 422.84 693.406 425.893V425.689C695.947 428.843 698.184 431.387 699.81 433.422C700.522 434.337 701.132 435.049 701.538 435.66C701.945 436.169 702.148 436.474 702.148 436.474C702.148 436.474 703.775 437.186 701.436 435.762C700.928 435.253 700.318 434.541 699.505 433.625C697.879 431.692 695.541 429.148 692.898 426.096L692.796 425.994L692.898 425.893C694.117 422.84 695.541 419.381 696.964 415.82C697.574 414.396 698.184 412.87 698.692 411.547L698.794 411.343H698.997C704.791 412.259 709.874 413.276 713.432 414.09C715.261 414.497 716.685 414.904 717.6 415.108C718.718 415.413 719.226 415.617 719.226 415.617Z" fill="#263238"/>
<path d="M697.98 413.073C697.98 413.073 697.98 412.463 698.184 411.242C698.387 410.021 698.59 408.393 698.794 406.358C699.302 402.288 699.912 396.489 699.302 390.283C698.692 383.975 696.557 378.582 694.728 374.919C693.813 373.088 692.999 371.562 692.39 370.545C691.78 369.527 691.475 369.018 691.475 368.917C691.475 368.917 691.576 369.018 691.78 369.324C691.983 369.527 692.186 369.934 692.593 370.443C693.203 371.46 694.118 372.885 695.134 374.716C697.066 378.379 699.302 383.873 699.912 390.181C700.522 396.489 699.81 402.288 699.2 406.358C698.895 408.393 698.59 410.021 698.387 411.242C698.184 412.361 697.98 413.073 697.98 413.073Z" fill="#263238"/>
<g opacity="0.3">
<path d="M625.5 453.974L667.381 434.642L664.535 426.401L670.939 423.959L681.41 425.282C686.696 425.994 691.982 424.163 695.743 420.398L669.618 413.785L639.833 420.093L632.311 398.117L630.481 404.527L632.006 418.364L633.022 433.32L625.5 453.974Z" fill="black"/>
</g>
<path d="M621.536 357.521C621.536 357.521 613.302 360.675 610.862 369.832C610.862 369.832 609.032 373.393 607.609 379.803C604.051 395.37 596.427 424.57 596.122 432.404C595.614 446.445 606.694 450.413 612.692 451.634C618.69 452.854 660.469 431.183 660.469 431.183L651.829 407.579L626.314 418.16C626.314 418.16 632.108 400.152 633.836 392.826C635.462 385.399 621.536 357.521 621.536 357.521Z" fill="#16A571"/>
<path d="M699.199 409.105C698.691 406.765 698.589 404.425 698.996 402.085C699.199 400.66 699.402 399.236 699.097 397.812C698.792 396.387 697.573 394.963 696.149 395.065L694.015 405.341L699.199 409.105Z" fill="#FFBF9D"/>
<path d="M698.183 384.992L690.661 421.314L672.871 420.195L678.157 384.28C678.259 383.364 679.072 382.652 680.089 382.652H696.353C697.471 382.652 698.386 383.771 698.183 384.992Z" fill="#263238"/>
<path d="M678.157 394.454C678.157 394.454 678.259 394.047 678.462 393.437C678.665 392.724 678.869 391.707 679.072 390.486C679.275 389.265 679.58 387.739 679.885 386.111C679.885 385.908 679.987 385.704 679.987 385.501C680.089 385.297 680.19 385.195 680.292 384.992C680.394 384.89 680.597 384.788 680.8 384.687C681.004 384.687 681.207 384.687 681.41 384.687C682.325 384.687 683.24 384.687 684.256 384.687C688.119 384.687 691.576 384.585 694.117 384.585C695.337 384.585 696.353 384.483 697.065 384.483C697.776 384.483 698.183 384.382 698.183 384.382C698.183 384.382 697.776 384.382 697.065 384.28C696.252 384.28 695.235 384.28 694.117 384.28C691.576 384.28 688.119 384.28 684.256 384.28C683.342 384.28 682.325 384.28 681.41 384.28C681.207 384.28 681.004 384.28 680.699 384.28C680.495 384.382 680.19 384.483 680.089 384.585C679.885 384.789 679.784 384.992 679.682 385.195C679.58 385.399 679.58 385.602 679.58 385.806C679.275 387.434 679.072 388.96 678.767 390.181C678.564 391.402 678.361 392.419 678.259 393.131C678.157 394.047 678.157 394.454 678.157 394.454Z" fill="#455A64"/>
<path d="M687.712 386.518C687.916 386.213 688.221 385.806 688.729 386.009C688.932 386.009 689.339 386.315 689.339 386.722C689.339 387.129 689.136 387.434 688.831 387.637C688.526 387.841 688.119 387.739 687.814 387.536C687.611 387.23 687.509 386.823 687.712 386.518Z" fill="#FAFAFA"/>
<path d="M688.119 397.506C688.526 397.608 697.98 402.492 697.98 402.492L702.859 407.681C702.859 407.681 704.587 410.733 703.164 415.413C701.741 420.093 699.403 421.721 693.914 423.044L683.647 421.416L678.462 417.143C677.446 416.329 677.039 414.904 677.446 413.683L677.547 413.48L676.937 412.463C676.531 411.852 676.632 411.038 677.039 410.529C677.649 409.716 678.767 409.614 679.479 410.122L685.273 414.396L689.238 414.904L689.848 413.582L683.952 410.529L676.429 404.73C675.413 403.916 675.311 402.492 676.124 401.576C676.836 400.762 677.954 400.559 678.869 401.067L685.781 405.137L692.999 408.393L691.881 405.544L683.342 399.236C683.748 399.134 683.037 396.184 688.119 397.506Z" fill="#FFBF9D"/>
<path d="M687.306 392.521C687.306 392.521 685.374 391.402 682.121 392.724C678.868 394.047 674.701 396.082 674.701 396.082L668.398 397.913L669.11 396.387C669.11 396.387 675.311 396.998 675.006 392.521L671.244 392.724L668.093 391.097L661.791 397.201L659.453 405.849L652.54 409.41L657.928 424.265L667.686 418.872L679.885 418.669L684.358 415.006L684.866 410.428L689.237 405.951C689.237 405.951 689.745 403.713 687.814 403.509C685.781 403.306 680.902 408.088 680.902 408.088L676.022 408.189C676.022 408.189 675.209 407.375 675.819 406.968C676.53 406.561 690.864 399.439 691.575 397.913C692.185 396.285 692.897 395.268 691.474 394.861C690.05 394.454 687.611 395.268 687.611 395.268C687.611 395.268 688.424 392.826 687.306 392.521Z" fill="#FFBF9D"/>
<path d="M675.311 401.373C675.311 401.474 678.259 400.152 681.715 398.422C685.171 396.692 688.017 395.166 687.916 395.065C687.916 394.963 684.968 396.285 681.511 398.015C678.055 399.745 675.311 401.271 675.311 401.373Z" fill="#FF9A6C"/>
<path d="M672.464 412.87C672.464 412.87 672.769 412.971 673.175 413.073C673.684 413.175 674.395 413.378 675.209 413.48C676.123 413.582 677.14 413.785 678.36 413.683C679.58 413.582 680.8 413.276 682.019 412.666C684.459 411.445 686.086 409.41 687.204 408.088C687.712 407.375 688.119 406.765 688.424 406.358C688.729 405.951 688.83 405.748 688.83 405.748C688.83 405.748 688.119 406.561 687 407.884C685.882 409.207 684.256 411.038 681.816 412.361C680.596 412.971 679.376 413.277 678.258 413.378C677.14 413.48 676.022 413.378 675.209 413.277C673.48 412.971 672.464 412.768 672.464 412.87Z" fill="#FF9A6C"/>
<path d="M652.438 409.41C652.438 409.41 652.54 409.309 652.845 409.105C653.15 408.902 653.557 408.698 654.167 408.393C655.386 407.782 657.115 406.867 659.249 405.646L659.148 405.748C659.758 403.407 660.571 400.457 661.486 397.099C663.315 395.268 665.45 393.233 667.788 390.995L667.89 390.893L667.992 390.995C669.008 391.504 670.025 392.012 671.143 392.623H671.041C672.159 392.521 673.481 392.521 674.802 392.419H675.006V392.623C675.006 393.335 675.006 394.047 674.599 394.658C674.294 395.268 673.684 395.777 673.074 396.082C671.753 396.692 670.33 396.794 668.906 396.692L669.11 396.591C668.906 397.099 668.601 397.608 668.398 398.117L668.093 397.812C670.025 397.201 672.159 396.591 674.396 395.98C676.327 395.065 678.36 394.149 680.393 393.233C682.325 392.216 684.866 391.3 687.204 392.419C687.509 392.521 687.712 392.724 687.814 393.03C687.916 393.335 688.017 393.538 688.017 393.844C688.017 394.352 687.916 394.861 687.814 395.37L687.509 395.065C688.221 394.861 688.932 394.658 689.746 394.556C690.457 394.454 691.372 394.454 692.084 394.963C692.287 395.065 692.389 395.37 692.49 395.573C692.49 395.777 692.49 396.082 692.49 396.285C692.389 396.692 692.185 397.099 692.084 397.405L691.88 397.913C691.88 398.015 691.779 398.117 691.677 398.219C691.575 398.32 691.575 398.422 691.474 398.524C691.169 398.829 690.864 399.032 690.559 399.236C687.916 400.966 685.273 402.39 682.528 403.814C681.207 404.527 679.885 405.239 678.564 405.849C677.954 406.154 677.242 406.561 676.632 406.867C676.327 407.07 675.921 407.172 675.819 407.375C675.717 407.477 675.921 407.884 676.124 407.986L675.921 407.884C677.547 407.884 679.174 407.782 680.8 407.782L680.597 407.884C682.121 406.46 683.646 405.137 685.273 404.018C685.679 403.713 686.188 403.509 686.594 403.306C687.103 403.102 687.712 403 688.119 403.204C688.627 403.306 689.136 403.814 689.237 404.323C689.441 404.832 689.339 405.341 689.237 405.849V405.951C687.712 407.477 686.289 409.003 684.866 410.428L684.968 410.326C684.764 411.954 684.663 413.48 684.459 414.904V415.006L684.358 415.108C682.833 416.329 681.308 417.55 679.885 418.669H679.783H679.682C674.904 418.771 670.838 418.771 667.483 418.872H667.585C664.434 420.602 661.994 421.925 660.367 422.84C659.554 423.247 658.944 423.654 658.436 423.858C658.233 423.959 658.029 424.061 657.928 424.061C657.826 424.163 657.724 424.163 657.724 424.163C657.724 424.163 657.724 424.163 657.928 424.061C658.029 423.959 658.233 423.858 658.436 423.756C658.843 423.451 659.554 423.146 660.266 422.637C661.994 421.721 664.332 420.297 667.483 418.567C670.838 418.465 675.006 418.364 679.682 418.262H679.58C681.003 417.143 682.528 415.922 684.053 414.599L683.951 414.701C684.155 413.175 684.256 411.649 684.459 410.122V410.021L684.561 409.919C685.984 408.495 687.407 406.968 688.932 405.442L688.831 405.544C689.034 404.73 688.831 403.713 688.017 403.509C687.204 403.204 686.289 403.713 685.476 404.221C683.85 405.239 682.325 406.561 680.902 407.986L680.8 408.088H680.698C679.072 408.088 677.445 408.189 675.819 408.189H675.717L675.616 408.088C675.412 407.986 675.311 407.782 675.209 407.579C675.107 407.375 675.006 407.07 675.107 406.867C675.209 406.561 675.514 406.46 675.616 406.358L676.124 406.053C676.734 405.748 677.445 405.341 678.055 405.035C679.377 404.323 680.698 403.713 682.02 403C684.663 401.576 687.407 400.152 689.949 398.422C690.254 398.219 690.559 398.015 690.864 397.71C690.965 397.608 690.965 397.608 691.067 397.506C691.067 397.506 691.169 397.405 691.169 397.303L691.372 396.794C691.677 396.082 692.084 395.268 691.575 394.963C691.067 394.556 690.254 394.556 689.542 394.658C688.831 394.759 688.119 394.861 687.407 395.065L686.899 395.166L687.001 394.658C687.103 394.251 687.204 393.742 687.204 393.335C687.204 392.928 687.103 392.521 686.798 392.419C685.883 392.012 684.663 391.91 683.545 392.114C682.426 392.317 681.41 392.826 680.393 393.233C678.36 394.149 676.327 395.065 674.396 395.98C672.261 396.591 670.126 397.201 668.093 397.71L667.585 397.812L667.788 397.303C668.093 396.794 668.297 396.184 668.5 395.777L668.601 395.675H668.805C670.126 395.777 671.549 395.675 672.769 395.065C673.379 394.759 673.786 394.352 674.091 393.844C674.396 393.335 674.396 392.623 674.396 392.114L674.599 392.317C673.278 392.419 672.058 392.419 670.838 392.419H670.736C669.618 391.809 668.5 391.3 667.585 390.791H667.788C665.45 393.03 663.315 395.065 661.486 396.896V396.794C660.571 400.152 659.758 403.102 659.046 405.442C656.81 406.561 655.081 407.477 653.862 408.088C653.252 408.393 652.845 408.596 652.54 408.8C652.642 409.309 652.438 409.41 652.438 409.41Z" fill="#FF9A6C"/>
<path d="M626.212 447.564C626.212 447.564 626.416 447.462 626.822 447.259C627.33 447.055 627.94 446.75 628.754 446.343C630.482 445.529 632.82 444.41 635.869 442.985C641.969 440.137 650.508 436.067 660.368 431.387L660.266 431.692C658.64 427.317 657.013 422.637 655.184 417.855C653.964 414.396 652.744 411.038 651.524 407.884L651.829 407.986C642.172 412.056 633.531 415.718 626.822 418.465C624.586 418.669 622.553 419.178 620.825 419.788C619.096 420.398 617.877 421.314 616.962 422.23C616.047 423.146 615.539 423.959 615.335 424.57C615.234 424.875 615.132 425.079 615.132 425.282C615.132 425.486 615.03 425.486 615.03 425.486C615.03 425.486 615.03 425.384 615.03 425.18C615.03 424.977 615.132 424.773 615.234 424.468C615.437 423.858 615.945 422.942 616.86 422.026C617.775 421.111 619.096 420.195 620.825 419.483C622.553 418.771 624.586 418.262 626.924 418.058H626.822C633.43 415.21 642.07 411.547 651.727 407.477L651.931 407.375L652.032 407.681C653.252 410.936 654.472 414.294 655.692 417.651C657.42 422.535 659.148 427.215 660.775 431.59L660.876 431.794L660.673 431.895C650.813 436.474 642.172 440.442 636.073 443.291C633.023 444.715 630.583 445.732 628.957 446.546C628.144 446.953 627.534 447.157 627.025 447.36C626.517 447.462 626.212 447.564 626.212 447.564Z" fill="#263238"/>
<path d="M634.751 382.652C634.649 382.652 634.141 381.533 633.124 379.701C632.108 377.87 630.685 375.326 628.855 372.681C627.025 370.036 625.297 367.696 623.874 366.068C622.552 364.44 621.637 363.524 621.739 363.423C621.739 363.423 622.044 363.626 622.451 364.033C622.857 364.44 623.467 365.05 624.179 365.864C625.602 367.39 627.432 369.731 629.262 372.376C631.091 375.021 632.514 377.667 633.429 379.498C633.938 380.414 634.243 381.228 634.446 381.736C634.649 382.347 634.751 382.652 634.751 382.652Z" fill="#263238"/>
<path d="M635.767 387.739C635.767 387.739 635.665 388.248 635.462 389.062C635.259 389.876 634.954 391.097 634.446 392.521C633.632 395.37 632.311 399.439 630.989 403.814C629.566 408.189 628.245 412.157 627.228 415.006C626.72 416.431 626.313 417.55 626.008 418.364C625.703 419.178 625.5 419.585 625.5 419.585C625.5 419.585 625.602 419.076 625.805 418.364C626.11 417.448 626.415 416.329 626.923 414.904C627.838 411.954 629.16 407.986 630.481 403.713C631.904 399.338 633.124 395.472 634.141 392.521C634.649 391.198 634.954 390.079 635.259 389.163C635.564 388.146 635.767 387.739 635.767 387.739Z" fill="#263238"/>
<defs>
<filter id="filter0_f_93_2922" x="145" y="-52" width="414" height="414" filterUnits="userSpaceOnUse" color-interpolation-filters="sRGB">
<feFlood flood-opacity="0" result="BackgroundImageFix"/>
<feBlend mode="normal" in="SourceGraphic" in2="BackgroundImageFix" result="shape"/>
<feGaussianBlur stdDeviation="58.5" result="effect1_foregroundBlur_93_2922"/>
</filter>
<filter id="filter1_f_93_2922" x="0" y="200" width="414" height="414" filterUnits="userSpaceOnUse" color-interpolation-filters="sRGB">
<feFlood flood-opacity="0" result="BackgroundImageFix"/>
<feBlend mode="normal" in="SourceGraphic" in2="BackgroundImageFix" result="shape"/>
<feGaussianBlur stdDeviation="58.5" result="effect1_foregroundBlur_93_2922"/>
</filter>
<filter id="filter2_f_93_2922" x="574" y="325" width="414" height="414" filterUnits="userSpaceOnUse" color-interpolation-filters="sRGB">
<feFlood flood-opacity="0" result="BackgroundImageFix"/>
<feBlend mode="normal" in="SourceGraphic" in2="BackgroundImageFix" result="shape"/>
<feGaussianBlur stdDeviation="58.5" result="effect1_foregroundBlur_93_2922"/>
</filter>
</defs>
</svg>
