<svg width="200" height="200" viewBox="0 0 54 55" fill="none" xmlns="http://www.w3.org/2000/svg">
<path d="M36.5455 7.45454H49.1818V37.2727C49.1818 40.8182 48.3333 43.8864 46.6364 46.4773C44.9545 49.053 42.6061 51.0455 39.5909 52.4545C36.5758 53.8485 33.0758 54.5455 29.0909 54.5455C25.0758 54.5455 21.5606 53.8485 18.5455 52.4545C15.5303 51.0455 13.1818 49.053 11.5 46.4773C9.83333 43.8864 9 40.8182 9 37.2727V7.45454H21.6364V36.1818C21.6364 37.6212 21.9545 38.9091 22.5909 40.0455C23.2273 41.1667 24.1061 42.0455 25.2273 42.6818C26.3636 43.3182 27.6515 43.6364 29.0909 43.6364C30.5455 43.6364 31.8333 43.3182 32.9545 42.6818C34.0758 42.0455 34.9545 41.1667 35.5909 40.0455C36.2273 38.9091 36.5455 37.6212 36.5455 36.1818V7.45454Z" fill="#16A571"/>
<path d="M41.5689 1.42434C42.3694 0.433992 43.8793 0.433992 44.6798 1.42434L52.6159 11.2428C53.6731 12.5506 52.7422 14.5 51.0605 14.5H35.1882C33.5065 14.5 32.5756 12.5506 33.6328 11.2428L41.5689 1.42434Z" fill="#16A571"/>
<g filter="url(#filter0_b_98_2938)">
<path d="M0 42.7557L27.5481 25L35.8601 34.2116L8.31197 51.9673L0 42.7557Z" fill="white"/>
</g>
<defs>
<filter id="filter0_b_98_2938" x="-67" y="-42" width="169.86" height="160.967" filterUnits="userSpaceOnUse" color-interpolation-filters="sRGB">
<feFlood flood-opacity="0" result="BackgroundImageFix"/>
<feGaussianBlur in="BackgroundImageFix" stdDeviation="33.5"/>
<feComposite in2="SourceAlpha" operator="in" result="effect1_backgroundBlur_98_2938"/>
<feBlend mode="normal" in="SourceGraphic" in2="effect1_backgroundBlur_98_2938" result="shape"/>
</filter>
</defs>
</svg>
